<?xml version="1.0" standalone="no"?><!DOCTYPE svg PUBLIC "-//W3C//DTD SVG 1.1//EN" "http://www.w3.org/Graphics/SVG/1.1/DTD/svg11.dtd"><svg t="1527230446010" class="icon" style="" viewBox="0 0 1024 1024" version="1.1" xmlns="http://www.w3.org/2000/svg" p-id="2866" xmlns:xlink="http://www.w3.org/1999/xlink" width="200" height="200"><defs><style type="text/css"></style></defs><path d="M512 65.15C265.197 65.15 65.131 265.208 65.131 512S265.198 958.85 512 958.85c246.8 0 446.868-200.058 446.868-446.85C958.868 265.21 758.8 65.15 512 65.15z m0 853.078c-224.368 0-406.244-181.887-406.244-406.226 0-224.377 181.877-406.228 406.244-406.228 224.366 0 406.243 181.852 406.243 406.228 0 224.335-181.877 406.226-406.243 406.226z m223.435-406.227H532.313V247.953c0-11.227-9.106-20.311-20.313-20.311-11.207 0-20.312 9.083-20.312 20.31v284.36c0 11.206 9.106 20.309 20.312 20.309h223.435c11.207 0 20.312-9.103 20.312-20.308-0.002-11.226-9.106-20.312-20.312-20.312z" fill="" p-id="2867"></path></svg>