<?xml version="1.0" standalone="no"?><!DOCTYPE svg PUBLIC "-//W3C//DTD SVG 1.1//EN" "http://www.w3.org/Graphics/SVG/1.1/DTD/svg11.dtd"><svg t="1527230340595" class="icon" style="" viewBox="0 0 1024 1024" version="1.1" xmlns="http://www.w3.org/2000/svg" p-id="2047" xmlns:xlink="http://www.w3.org/1999/xlink" width="200" height="200"><defs><style type="text/css"></style></defs><path d="M512 665.8c-84.4 0-153.8-69.4-153.8-153.8 0-83.9 69.4-153.3 153.8-153.3 84.9 0 153.3 69.4 153.3 153.3 0 84.4-68.4 153.8-153.3 153.8z m0-262.4c-59.3 0-109.1 49.3-109.1 108.6 0 59.8 49.8 109.1 109.1 109.1S620.6 571.8 620.6 512c0-59.3-49.3-108.6-108.6-108.6z m0 377.5C275.3 780.9 63.6 574.3 63.6 512c0-62.3 211.6-268.9 448.4-268.9 247.3 0 448.4 217.1 448.4 268.9 0 53.3-201.1 268.9-448.4 268.9z m0-493.1c-228.7 0-399.1 195-403.6 224.7 4.5 29.7 174.9 223.7 403.6 223.7 221.2 0 393.1-191 403.1-224.2-10-33.2-181.9-224.2-403.1-224.2z" fill="" p-id="2048"></path></svg>